<svg width="125" height="126" viewBox="0 0 125 126" fill="none" xmlns="http://www.w3.org/2000/svg">
<path d="M0 51.1658C0 48.9685 0 46.7713 0 44.5741C0.407707 42.0985 0.620105 39.5693 1.2573 37.1548C6.26208 18.2147 18.2662 6.23498 37.26 1.35715C39.6013 0.756575 42.0402 0.536858 44.4327 0.141357C46.6299 0.141357 48.8272 0.141357 51.0244 0.141357C51.3344 0.212157 51.6445 0.322012 51.9594 0.348867C57.6087 0.817608 63.0383 2.18965 68.0919 4.74331C84.3074 12.9438 93.4528 26.0808 95.2545 44.2152C95.3717 45.3993 95.755 45.8973 96.9024 46.2904C110.493 50.9363 119.358 60.2037 123.481 73.9388C124.233 76.446 124.507 79.0998 125 81.6852C125 83.7188 125 85.7549 125 87.7886C124.927 88.1011 124.819 88.4111 124.79 88.7285C124.26 94.2606 122.642 99.4558 119.922 104.292C119.505 105.034 119.461 105.672 119.683 106.46C121.292 112.158 122.869 117.866 124.448 123.574C124.561 123.979 124.634 124.397 124.746 124.902C124.441 124.839 124.285 124.817 124.133 124.775C118.308 123.166 112.476 121.582 106.665 119.919C105.611 119.619 104.815 119.792 103.821 120.22C100.665 121.577 97.4712 122.878 94.1998 123.916C92.0978 124.582 89.8371 124.751 87.6472 125.141C85.6136 125.141 83.5775 125.141 81.5438 125.141C81.2313 125.068 80.9237 124.956 80.6063 124.927C64.5715 123.388 50.8535 112.224 46.0343 96.7239C45.7584 95.8377 45.3751 95.5228 44.4645 95.4617C37.2185 94.9759 30.4315 92.9398 24.1011 89.3632C23.7105 89.1435 23.0879 89.1289 22.6338 89.2509C18.2809 90.413 13.9426 91.6288 9.59942 92.8251C6.52575 93.6722 3.45208 94.5145 0.23437 95.3983C0.361321 94.8416 0.43212 94.4559 0.537099 94.0775C2.41694 87.271 4.2797 80.4572 6.21082 73.6653C6.5111 72.6131 6.45984 71.8001 5.90809 70.8236C3.69622 66.915 2.08736 62.7524 1.19138 58.3434C0.707994 55.9679 0.390617 53.5583 0 51.1658ZM10.698 84.8711C11.0716 84.7832 11.2595 84.7466 11.4426 84.6954C15.3976 83.6065 19.3624 82.5494 23.3003 81.4044C24.2525 81.1261 24.9629 81.2531 25.7881 81.7779C34.9944 87.6323 44.9918 89.5463 55.6874 87.481C77.7768 83.2159 92.2711 61.0508 87.0833 39.0078C83.4823 23.7127 73.8682 13.4272 58.7733 9.10846C43.7687 4.81411 30.268 8.45907 19.1427 19.433C5.51259 32.88 3.49114 53.4973 13.8376 69.847C14.3332 70.6307 14.4724 71.307 14.2087 72.22C13.0149 76.3532 11.8992 80.5109 10.698 84.8711ZM95.1519 53.3947C93.7018 64.4541 89.1853 73.8606 81.4169 81.6144C73.6558 89.3657 64.2419 93.8651 53.2802 95.2933C53.3974 95.6815 53.4658 95.9451 53.5561 96.2015C57.9163 108.518 70.377 117.507 83.4798 117.803C90.5549 117.964 97.0611 116.152 102.962 112.231C103.658 111.77 104.27 111.628 105.108 111.89C107.393 112.6 109.715 113.198 112.024 113.831C112.735 114.026 113.457 114.185 114.295 114.39C113.474 111.418 112.771 108.621 111.909 105.874C111.521 104.636 111.68 103.711 112.383 102.61C120.977 89.1557 118.941 71.9588 107.469 60.8628C103.98 57.4889 99.9321 55.0011 95.1519 53.3947Z" fill="white"/>
</svg>
