<svg width="16" height="13" viewBox="0 0 16 13" fill="none" xmlns="http://www.w3.org/2000/svg">
<path d="M15.9953 1.54204C15.4072 1.80262 14.7755 1.97869 14.1114 2.05828C14.7966 1.64824 15.3093 1.00289 15.5537 0.242638C14.9099 0.625055 14.2053 0.894236 13.4705 1.03848C12.9763 0.510874 12.3218 0.161171 11.6086 0.0436601C10.8953 -0.0738508 10.1632 0.0474051 9.52596 0.388602C8.88869 0.729799 8.38188 1.27185 8.08424 1.93059C7.78659 2.58934 7.71476 3.32792 7.87989 4.03167C6.57534 3.96617 5.29914 3.6271 4.13411 3.03646C2.96909 2.44581 1.94127 1.6168 1.11738 0.60323C0.835663 1.08918 0.673678 1.65261 0.673678 2.25266C0.673364 2.79284 0.806388 3.32474 1.06095 3.80118C1.31551 4.27762 1.68373 4.68386 2.13295 4.98386C1.61198 4.96728 1.1025 4.82651 0.646915 4.57327V4.61552C0.646863 5.37315 0.908931 6.10746 1.38865 6.69385C1.86837 7.28025 2.5362 7.68262 3.27882 7.83268C2.79553 7.96348 2.28883 7.98274 1.79701 7.88902C2.00653 8.54092 2.41466 9.11097 2.96426 9.51938C3.51386 9.9278 4.17742 10.1541 4.86204 10.1667C3.69986 11.079 2.26457 11.5739 0.787067 11.5717C0.525343 11.5718 0.26384 11.5565 0.00390625 11.5259C1.50366 12.4902 3.24948 13.002 5.03248 13C11.0682 13 14.3677 8.001 14.3677 3.66545C14.3677 3.52459 14.3642 3.38232 14.3579 3.24147C14.9997 2.77733 15.5537 2.20258 15.9939 1.54415L15.9953 1.54204Z" fill="#14213D"/>
</svg>
