<svg width="16" height="16" viewBox="0 0 16 16" fill="none" xmlns="http://www.w3.org/2000/svg">
<path fill-rule="evenodd" clip-rule="evenodd" d="M4.97699 0.710504C5.75899 0.674504 6.00832 0.666504 8.00032 0.666504C9.99232 0.666504 10.2417 0.675171 11.023 0.710504C11.8043 0.745837 12.3377 0.870504 12.8043 1.05117C13.293 1.23584 13.7363 1.5245 14.103 1.89784C14.4763 2.26384 14.7643 2.7065 14.9483 3.19584C15.1297 3.6625 15.2537 4.19584 15.2897 4.97584C15.3257 5.75917 15.3337 6.0085 15.3337 7.99984C15.3337 9.99184 15.325 10.2412 15.2897 11.0232C15.2543 11.8032 15.1297 12.3365 14.9483 12.8032C14.7643 13.2926 14.4758 13.736 14.103 14.1025C13.7363 14.4758 13.293 14.7638 12.8043 14.9478C12.3377 15.1292 11.8043 15.2532 11.0243 15.2892C10.2417 15.3252 9.99232 15.3332 8.00032 15.3332C6.00832 15.3332 5.75899 15.3245 4.97699 15.2892C4.19699 15.2538 3.66366 15.1292 3.19699 14.9478C2.70761 14.7638 2.26421 14.4753 1.89766 14.1025C1.52458 13.7363 1.23587 13.2931 1.05166 12.8038C0.870992 12.3372 0.746992 11.8038 0.710992 11.0238C0.674992 10.2405 0.666992 9.99117 0.666992 7.99984C0.666992 6.00784 0.675659 5.7585 0.710992 4.97717C0.746326 4.19584 0.870992 3.6625 1.05166 3.19584C1.23614 2.70656 1.52507 2.26338 1.89833 1.89717C2.26435 1.52417 2.70731 1.23547 3.19633 1.05117C3.66299 0.870504 4.19633 0.746504 4.97633 0.710504H4.97699ZM10.9637 2.0305C10.1903 1.99517 9.95832 1.98784 8.00032 1.98784C6.04232 1.98784 5.81032 1.99517 5.03699 2.0305C4.32166 2.06317 3.93366 2.1825 3.67499 2.28317C3.33299 2.4165 3.08833 2.5745 2.83166 2.83117C2.58836 3.06787 2.40111 3.35602 2.28366 3.6745C2.18299 3.93317 2.06366 4.32117 2.03099 5.0365C1.99566 5.80984 1.98833 6.04184 1.98833 7.99984C1.98833 9.95784 1.99566 10.1898 2.03099 10.9632C2.06366 11.6785 2.18299 12.0665 2.28366 12.3252C2.40099 12.6432 2.58833 12.9318 2.83166 13.1685C3.06833 13.4118 3.35699 13.5992 3.67499 13.7165C3.93366 13.8172 4.32166 13.9365 5.03699 13.9692C5.81032 14.0045 6.04166 14.0118 8.00032 14.0118C9.95899 14.0118 10.1903 14.0045 10.9637 13.9692C11.679 13.9365 12.067 13.8172 12.3257 13.7165C12.6677 13.5832 12.9123 13.4252 13.169 13.1685C13.4123 12.9318 13.5997 12.6432 13.717 12.3252C13.8177 12.0665 13.937 11.6785 13.9697 10.9632C14.005 10.1898 14.0123 9.95784 14.0123 7.99984C14.0123 6.04184 14.005 5.80984 13.9697 5.0365C13.937 4.32117 13.8177 3.93317 13.717 3.6745C13.5837 3.3325 13.4257 3.08784 13.169 2.83117C12.9323 2.58788 12.6441 2.40064 12.3257 2.28317C12.067 2.1825 11.679 2.06317 10.9637 2.0305ZM7.06366 10.2605C7.58676 10.4783 8.16924 10.5076 8.71161 10.3436C9.25398 10.1797 9.72259 9.83245 10.0374 9.36133C10.3522 8.89022 10.4937 8.32442 10.4377 7.76057C10.3817 7.19673 10.1317 6.66982 9.73032 6.26984C9.47448 6.01415 9.16513 5.81838 8.82455 5.6966C8.48396 5.57482 8.12061 5.53008 7.76065 5.56558C7.4007 5.60108 7.05309 5.71595 6.74286 5.90192C6.43263 6.08789 6.16749 6.34033 5.96653 6.64107C5.76557 6.94181 5.63378 7.28336 5.58067 7.64114C5.52755 7.99892 5.55443 8.36403 5.65935 8.71018C5.76428 9.05633 5.94465 9.37491 6.18747 9.64298C6.4303 9.91106 6.72954 10.122 7.06366 10.2605ZM5.33499 5.3345C5.68501 4.98449 6.10054 4.70684 6.55786 4.51741C7.01518 4.32798 7.50533 4.23049 8.00032 4.23049C8.49532 4.23049 8.98547 4.32798 9.44279 4.51741C9.90011 4.70684 10.3156 4.98449 10.6657 5.3345C11.0157 5.68452 11.2933 6.10005 11.4827 6.55737C11.6722 7.01469 11.7697 7.50484 11.7697 7.99984C11.7697 8.49483 11.6722 8.98499 11.4827 9.4423C11.2933 9.89962 11.0157 10.3152 10.6657 10.6652C9.95877 11.3721 9.00002 11.7692 8.00032 11.7692C7.00063 11.7692 6.04188 11.3721 5.33499 10.6652C4.6281 9.95828 4.23097 8.99953 4.23097 7.99984C4.23097 7.00014 4.6281 6.04139 5.33499 5.3345ZM12.6057 4.79184C12.6924 4.71002 12.7618 4.61162 12.8099 4.50249C12.8579 4.39335 12.8835 4.27568 12.8853 4.15646C12.887 4.03723 12.8648 3.91887 12.82 3.80838C12.7752 3.69789 12.7086 3.59751 12.6243 3.5132C12.54 3.42888 12.4396 3.36234 12.3291 3.31752C12.2186 3.27269 12.1003 3.25049 11.981 3.25223C11.8618 3.25396 11.7441 3.27961 11.635 3.32763C11.5259 3.37566 11.4275 3.4451 11.3457 3.53184C11.1865 3.70052 11.0994 3.92458 11.1028 4.15646C11.1062 4.38833 11.1998 4.60976 11.3638 4.77373C11.5277 4.93771 11.7492 5.03132 11.981 5.0347C12.2129 5.03808 12.437 4.95096 12.6057 4.79184Z" fill="#14213D"/>
</svg>
