<svg width="132" height="25" viewBox="0 0 132 25" fill="none" xmlns="http://www.w3.org/2000/svg">
<path d="M11.4844 24H7.01562V6.07812H0.28125V1.59375H18.2031V6.07812H11.4844V24ZM22.9219 24H18.6562V7.26562H19.6875L21.0938 9.25C21.7812 8.625 22.5625 8.14583 23.4375 7.8125C24.3125 7.46875 25.2188 7.29688 26.1562 7.29688H29.9219V11.5469H26.1562C25.7083 11.5469 25.2865 11.6302 24.8906 11.7969C24.4948 11.9635 24.151 12.1927 23.8594 12.4844C23.5677 12.776 23.3385 13.1198 23.1719 13.5156C23.0052 13.9115 22.9219 14.3333 22.9219 14.7812V24ZM47.7969 24H46.7656L45.1094 21.7031C44.7031 22.0677 44.2708 22.4115 43.8125 22.7344C43.3646 23.0469 42.8906 23.3229 42.3906 23.5625C41.8906 23.7917 41.375 23.974 40.8438 24.1094C40.3229 24.2448 39.7917 24.3125 39.25 24.3125C38.0729 24.3125 36.9635 24.1146 35.9219 23.7188C34.8906 23.3229 33.9844 22.75 33.2031 22C32.4323 21.2396 31.8229 20.3125 31.375 19.2188C30.9271 18.125 30.7031 16.8802 30.7031 15.4844C30.7031 14.1823 30.9271 12.9896 31.375 11.9062C31.8229 10.8125 32.4323 9.875 33.2031 9.09375C33.9844 8.3125 34.8906 7.70833 35.9219 7.28125C36.9635 6.84375 38.0729 6.625 39.25 6.625C39.7917 6.625 40.3281 6.69271 40.8594 6.82812C41.3906 6.96354 41.9062 7.15104 42.4062 7.39062C42.9062 7.63021 43.3802 7.91146 43.8281 8.23438C44.2865 8.55729 44.7135 8.90625 45.1094 9.28125L46.7656 7.29688H47.7969V24ZM43.5 15.4844C43.5 14.901 43.3854 14.3385 43.1562 13.7969C42.9375 13.2448 42.6354 12.7604 42.25 12.3438C41.8646 11.9167 41.4115 11.5781 40.8906 11.3281C40.3802 11.0677 39.8333 10.9375 39.25 10.9375C38.6667 10.9375 38.1146 11.0365 37.5938 11.2344C37.0833 11.4323 36.6354 11.724 36.25 12.1094C35.875 12.4948 35.5781 12.974 35.3594 13.5469C35.1406 14.1094 35.0312 14.7552 35.0312 15.4844C35.0312 16.2135 35.1406 16.8646 35.3594 17.4375C35.5781 18 35.875 18.474 36.25 18.8594C36.6354 19.2448 37.0833 19.5365 37.5938 19.7344C38.1146 19.9323 38.6667 20.0312 39.25 20.0312C39.8333 20.0312 40.3802 19.9062 40.8906 19.6562C41.4115 19.3958 41.8646 19.0573 42.25 18.6406C42.6354 18.2135 42.9375 17.7292 43.1562 17.1875C43.3854 16.6354 43.5 16.0677 43.5 15.4844ZM55.8125 24L49.4375 7.26562H54.2969L57.9531 17.7031L61.5938 7.26562H66.4688L60.0938 24H55.8125ZM74.25 19.9062C74.4167 19.9583 74.5833 19.9948 74.75 20.0156C74.9167 20.026 75.0833 20.0312 75.25 20.0312C75.6667 20.0312 76.0677 19.974 76.4531 19.8594C76.8385 19.7448 77.1979 19.5833 77.5312 19.375C77.875 19.1562 78.1771 18.8958 78.4375 18.5938C78.7083 18.2812 78.9271 17.9375 79.0938 17.5625L82.2188 20.7031C81.8229 21.2656 81.3646 21.7708 80.8438 22.2188C80.3333 22.6667 79.776 23.0469 79.1719 23.3594C78.5781 23.6719 77.9479 23.9062 77.2812 24.0625C76.625 24.2292 75.9479 24.3125 75.25 24.3125C74.0729 24.3125 72.9635 24.0938 71.9219 23.6562C70.8906 23.2188 69.9844 22.6094 69.2031 21.8281C68.4323 21.0469 67.8229 20.1198 67.375 19.0469C66.9271 17.9635 66.7031 16.776 66.7031 15.4844C66.7031 14.1615 66.9271 12.9531 67.375 11.8594C67.8229 10.7656 68.4323 9.83333 69.2031 9.0625C69.9844 8.29167 70.8906 7.69271 71.9219 7.26562C72.9635 6.83854 74.0729 6.625 75.25 6.625C75.9479 6.625 76.6302 6.70833 77.2969 6.875C77.9635 7.04167 78.5938 7.28125 79.1875 7.59375C79.7917 7.90625 80.3542 8.29167 80.875 8.75C81.3958 9.19792 81.8542 9.70312 82.25 10.2656L74.25 19.9062ZM76.4375 11.1094C76.2396 11.0365 76.0417 10.9896 75.8438 10.9688C75.6562 10.9479 75.4583 10.9375 75.25 10.9375C74.6667 10.9375 74.1146 11.0469 73.5938 11.2656C73.0833 11.474 72.6354 11.776 72.25 12.1719C71.875 12.5677 71.5781 13.0469 71.3594 13.6094C71.1406 14.1615 71.0312 14.7865 71.0312 15.4844C71.0312 15.6406 71.0365 15.8177 71.0469 16.0156C71.0677 16.2135 71.0938 16.4167 71.125 16.625C71.1667 16.8229 71.2135 17.0156 71.2656 17.2031C71.3177 17.3906 71.3854 17.5573 71.4688 17.7031L76.4375 11.1094ZM88.7031 24H84.4062V0.609375H88.7031V24Z" fill="white"/>
<path d="M110.344 17.2812C110.344 18.2083 110.167 19.0781 109.812 19.8906C109.458 20.7031 108.974 21.4167 108.359 22.0312C107.755 22.6354 107.047 23.1146 106.234 23.4688C105.422 23.8229 104.552 24 103.625 24H92.4219V1.59375H103.625C104.552 1.59375 105.422 1.77083 106.234 2.125C107.047 2.47917 107.755 2.96354 108.359 3.57812C108.974 4.18229 109.458 4.89062 109.812 5.70312C110.167 6.51562 110.344 7.38542 110.344 8.3125C110.344 8.72917 110.286 9.15625 110.172 9.59375C110.057 10.0312 109.896 10.4531 109.688 10.8594C109.479 11.2656 109.229 11.6354 108.938 11.9688C108.646 12.3021 108.323 12.5781 107.969 12.7969C108.333 12.9948 108.661 13.2656 108.953 13.6094C109.245 13.9427 109.495 14.3125 109.703 14.7188C109.911 15.125 110.068 15.5521 110.172 16C110.286 16.4375 110.344 16.8646 110.344 17.2812ZM96.9062 19.5156H103.625C103.938 19.5156 104.229 19.4583 104.5 19.3438C104.771 19.2292 105.005 19.0729 105.203 18.875C105.411 18.6667 105.573 18.4271 105.688 18.1562C105.802 17.8854 105.859 17.5938 105.859 17.2812C105.859 16.9688 105.802 16.6771 105.688 16.4062C105.573 16.1354 105.411 15.901 105.203 15.7031C105.005 15.4948 104.771 15.3333 104.5 15.2188C104.229 15.1042 103.938 15.0469 103.625 15.0469H96.9062V19.5156ZM96.9062 10.5625H103.625C103.938 10.5625 104.229 10.5052 104.5 10.3906C104.771 10.276 105.005 10.1198 105.203 9.92188C105.411 9.71354 105.573 9.47396 105.688 9.20312C105.802 8.92188 105.859 8.625 105.859 8.3125C105.859 8 105.802 7.70833 105.688 7.4375C105.573 7.16667 105.411 6.93229 105.203 6.73438C105.005 6.52604 104.771 6.36458 104.5 6.25C104.229 6.13542 103.938 6.07812 103.625 6.07812H96.9062V10.5625ZM131.688 12.7969C131.688 13.8281 131.552 14.8229 131.281 15.7812C131.021 16.7292 130.646 17.6198 130.156 18.4531C129.667 19.276 129.083 20.0312 128.406 20.7188C127.729 21.3958 126.974 21.9792 126.141 22.4688C125.307 22.9583 124.411 23.3385 123.453 23.6094C122.505 23.8698 121.516 24 120.484 24H113.734V1.59375H120.484C121.516 1.59375 122.505 1.72917 123.453 2C124.411 2.26042 125.307 2.63542 126.141 3.125C126.974 3.61458 127.729 4.20312 128.406 4.89062C129.083 5.56771 129.667 6.32292 130.156 7.15625C130.646 7.97917 131.021 8.86979 131.281 9.82812C131.552 10.776 131.688 11.7656 131.688 12.7969ZM127.203 12.7969C127.203 11.8698 127.026 11 126.672 10.1875C126.328 9.375 125.849 8.66667 125.234 8.0625C124.63 7.44792 123.917 6.96354 123.094 6.60938C122.281 6.25521 121.411 6.07812 120.484 6.07812H118.25V19.5156H120.484C121.411 19.5156 122.281 19.3438 123.094 19C123.917 18.6458 124.63 18.1667 125.234 17.5625C125.849 16.9479 126.328 16.2344 126.672 15.4219C127.026 14.599 127.203 13.724 127.203 12.7969Z" fill="#FFC800"/>
</svg>
