<svg width="45" height="45" viewBox="0 0 45 45" fill="none" xmlns="http://www.w3.org/2000/svg">
<path d="M45 22.3352C45 28.2479 42.6295 33.9184 38.4099 38.0993C34.1903 42.2802 28.4674 44.629 22.5 44.629C16.5326 44.629 10.8097 42.2802 6.5901 38.0993C2.37053 33.9184 0 28.2479 0 22.3352C0 16.4225 2.37053 10.752 6.5901 6.57109C10.8097 2.39019 16.5326 0.0413818 22.5 0.0413818C28.4674 0.0413818 34.1903 2.39019 38.4099 6.57109C42.6295 10.752 45 16.4225 45 22.3352ZM19.0969 14.2342C18.8866 14.0858 18.6392 13.9977 18.3817 13.9794C18.1242 13.9612 17.8667 14.0135 17.6372 14.1306C17.4077 14.2477 17.2152 14.4252 17.0808 14.6435C16.9464 14.8618 16.8752 15.1126 16.875 15.3684V29.302C16.8752 29.5578 16.9464 29.8086 17.0808 30.0269C17.2152 30.2452 17.4077 30.4227 17.6372 30.5398C17.8667 30.6569 18.1242 30.7092 18.3817 30.691C18.6392 30.6727 18.8866 30.5846 19.0969 30.4362L28.9406 23.4694C29.1229 23.3405 29.2715 23.1703 29.374 22.9731C29.4765 22.7758 29.53 22.5571 29.53 22.3352C29.53 22.1133 29.4765 21.8946 29.374 21.6973C29.2715 21.5001 29.1229 21.3299 28.9406 21.201L19.0969 14.2342Z" fill="#FFC800" style="mix-blend-mode:luminosity"/>
</svg>
