<svg width="24" height="24" viewBox="0 0 24 24" fill="none" xmlns="http://www.w3.org/2000/svg">
<path d="M22.4594 6.01238C21.6898 6.35373 20.8626 6.58442 19.9946 6.68815C20.8805 6.15701 21.5611 5.31598 21.8815 4.31378C21.0522 4.80564 20.1338 5.16278 19.1562 5.3552C18.3734 4.52112 17.2581 4 16.0237 4C13.6536 4 11.7319 5.92147 11.7319 8.29155C11.7319 8.6279 11.7699 8.95546 11.8431 9.2696C8.27634 9.0906 5.114 7.38203 2.99734 4.78551C2.6279 5.41935 2.41626 6.15656 2.41626 6.94309C2.41626 8.43204 3.17389 9.74563 4.32548 10.5153C3.62204 10.4929 2.96021 10.2999 2.38164 9.97846C2.38123 9.99639 2.38123 10.0143 2.38123 10.0324C2.38123 12.1118 3.86058 13.8463 5.82384 14.2406C5.46374 14.3387 5.08459 14.3912 4.69319 14.3912C4.41665 14.3912 4.1478 14.3642 3.88571 14.3142C4.43186 16.0191 6.01678 17.26 7.89479 17.2945C6.42601 18.4457 4.57552 19.1318 2.56478 19.1318C2.21837 19.1318 1.87676 19.1114 1.54102 19.0717C3.44028 20.2894 5.69616 21 8.11975 21C16.0136 21 20.3304 14.4605 20.3304 8.78918C20.3304 8.60314 20.3262 8.41805 20.3179 8.23395C21.1565 7.62886 21.8841 6.87302 22.4594 6.01238Z" fill="white"/>
</svg>
